<?xml version="1.0" encoding="utf-8"?><svg xmlns="http://www.w3.org/2000/svg" font-family="Andale Mono,AndaleMono,Consolas,monospace" width="975px" height="550px" font-size="16px">
<style>
.keyColor {fill: #ffa657;}
.valueColor {fill: #a5d6ff;}
.addColor {fill: #3fb950;}
.delColor {fill: #f85149;}
.commentColor {fill: #8b949e;}
text, tspan {white-space: pre;}
</style>

<rect width="970px" height="530px" fill="#161b22" rx="15"/>

<text x="15" y="30" fill="#c9d1d9" class="ascii">
<tspan x="15" y="30">    ____       _</tspan>
<tspan x="15" y="50"> | __\_\_o____/_|</tspan>
<tspan x="15" y="70">&lt;[___\_\_-----&lt;</tspan>
<tspan x="15" y="90"> |  o'       .</tspan>
<tspan x="15" y="110">             .</tspan>
<tspan x="15" y="130">              .</tspan>
<tspan x="15" y="150">               .</tspan>
<tspan x="15" y="170">                .</tspan>
<tspan x="15" y="190">                 .</tspan>
<tspan x="15" y="210">                  ..</tspan>
<tspan x="15" y="230">                     .</tspan>
<tspan x="15" y="250">                      ..</tspan>
<tspan x="15" y="270">                       .</tspan>
<tspan x="15" y="290">                        ..</tspan>
<tspan x="15" y="310">                          ...</tspan>
<tspan x="15" y="330">                            ..__</tspan>
<tspan x="15" y="350">                          __/ \ \</tspan>
<tspan x="15" y="370">                         /o \_  </tspan>
</text>

<text x="370" y="30" fill="#c9d1d9">
<tspan x="370" y="30">xerk@dot</tspan>
<tspan x="370" y="50">——————</tspan>
<tspan x="370" y="70" class="keyColor">OS</tspan>: <tspan class="valueColor">Works on my machine™</tspan>
<tspan x="370" y="90" class="keyColor">Uptime</tspan>: <tspan class="valueColor">25 years</tspan>
<tspan x="370" y="150" class="keyColor">IDE</tspan>: <tspan class="valueColor">MS Paint for diagrams, prod for testing</tspan>
<tspan x="370" y="190" class="keyColor">Best Practices</tspan>: <tspan class="valueColor">Commits straight to main, YOLO deploys</tspan>
<tspan x="370" y="210" class="keyColor">Architecture</tspan>: <tspan class="valueColor">Microservices for my todo app</tspan>
<tspan x="370" y="230" class="keyColor">Tech Debt</tspan>: <tspan class="valueColor">Not a problem if it never gets paid back</tspan>
<tspan x="370" y="250" class="keyColor">Deployed</tspan>: <tspan class="valueColor">localhost:3000 (port 3001-3099 also in use)</tspan>
<tspan x="370" y="270" class="keyColor">Agile</tspan>: <tspan class="valueColor">Sprint planning takes 2 weeks, standup is 45min</tspan>
</text>

</svg>
